# xmcd CD database file
#
# Track frame offsets:
#	150
#	14014
#	30637
#	49187
#	60557
#	77577
#	94218
#	109031
#	124796
#	140095
#	153651
#	171386
#	185695
#	204323
#	222289
#	236474
#
# Disc length: 3319 seconds
#
# Revision: 0
# Processed by: cddbd v1.5.2PL0 Copyright (c) Steve Scherf et al.
# Submitted via: CDex 1.70beta2
#
DISCID=e40cf510
DTITLE=Various Artist - Buffalo River Vol. 2
DYEAR=2007
DGENRE=Country
TTITLE0=Perfect Peace/I Believe In Jesus
TTITLE1=Ricky Russ/Fallen Heroes
TTITLE2=Carma Grimes/Little Girl In My Mind
TTITLE3=Roxanne/I Will Dance
TTITLE4=Eric Horner/America Bless God
TTITLE5=Harvest Wind/Sunrise On Sunday Morning
TTITLE6=Walt Mills/I Love You Today
TTITLE7=Cheryl Dunn/Let's Go
TTITLE8=Dale Johnston/Jesus Is The Answer
TTITLE9=Billy Grande/Footprints In The Sand
TTITLE10=Micki Farington/Mothers And Daughters
TTITLE11=Ken Iverson/I Could Not Change
TTITLE12=Paul Mills/I'll Praise You
TTITLE13=Tom Cohenour/Swinging Doors
TTITLE14=Darlene Jones/Jesus, The Carpenter's Son
TTITLE15=The Calloways/The Glory Train
EXTD=YEAR: 2007
EXTT0=
EXTT1=
EXTT2=
EXTT3=
EXTT4=
EXTT5=
EXTT6=
EXTT7=
EXTT8=
EXTT9=
EXTT10=
EXTT11=
EXTT12=
EXTT13=
EXTT14=
EXTT15=
PLAYORDER=
